<svg width="72" height="75" viewBox="0 0 72 75" fill="none" xmlns="http://www.w3.org/2000/svg">
<path d="M49.7143 25.5682C49.7143 20.4545 50.8032 13.014 62.9463 9.74958C62.8894 17.951 65.8794 26.4705 68.1962 31.3409C70.1669 35.4839 72 39.3374 72 44.4595C72 63.2102 55.8831 75 36 75C16.1169 75 0 63.2102 0 44.4595C0 36.7059 2.88 25.4825 14.4 21.3041C14.4 21.3041 12 30.6818 14.9757 36.4214C11.2354 38.3192 8.69199 42.0518 8.69199 46.3462C8.69199 52.5628 14.022 57.6023 20.5969 57.6023C26.7248 57.6023 31.7712 53.2249 32.4292 47.5969H39.2091C39.8671 53.2249 44.9135 57.6023 51.0414 57.6023C57.6163 57.6023 62.9463 52.5628 62.9463 46.3462C62.9463 40.1296 57.6163 35.0901 51.0414 35.0901C45.4941 35.0901 40.833 38.6773 39.5115 43.5321H32.1268C30.8053 38.6773 26.1442 35.0901 20.5969 35.0901C20.1786 35.0901 19.7653 35.1105 19.3581 35.1503C17.28 24.0897 19.1855 8.02821 41.761 0C41.761 0.608805 41.7605 1.21048 41.76 1.80522C41.7471 16.7549 44.5714 20.4545 49.7143 25.5682Z" fill="#446CCF"/>
</svg>
