<svg width="639" height="122" viewBox="0 0 639 122" fill="none" xmlns="http://www.w3.org/2000/svg">
<path d="M109.527 55.6084L87.9551 77.1729C76.0484 89.0869 56.7328 89.0869 44.8262 77.1729C42.9497 75.3038 41.4828 73.1964 40.1944 71.0221L50.2173 60.9993C50.6938 60.5189 51.2821 60.2435 51.8443 59.9197C52.5367 62.2877 53.7467 64.529 55.6084 66.3904C61.5542 72.3401 71.2308 72.3327 77.1728 66.3904L98.7373 44.826C104.687 38.8763 104.687 29.2035 98.7373 23.2577C92.795 17.3119 83.1225 17.3119 77.1728 23.2577L69.503 30.9349C63.2818 28.5111 56.5763 27.8596 50.0495 28.8163L66.3904 12.4755C78.3044 0.565222 97.6126 0.565222 109.527 12.4755C121.434 24.3862 121.434 43.6982 109.527 55.6084ZM52.4995 91.0678L44.8262 98.745C38.8803 104.687 29.2037 104.687 23.2579 98.745C17.3121 92.7953 17.3121 83.1225 23.2579 77.1731L44.8262 55.6087C50.7758 49.659 60.4448 49.659 66.3906 55.6087C68.2485 57.4665 69.4585 59.7078 70.1586 62.0721C70.7245 61.7444 71.3054 61.4763 71.782 60.9998L81.8048 50.9808C80.524 48.7991 79.0495 46.6991 77.1731 44.8264C65.2664 32.9162 45.9508 32.9162 34.0404 44.8264L12.4759 66.3909C0.56565 78.305 0.56565 97.6131 12.4759 109.527C24.3862 121.434 43.6981 121.434 55.6086 109.527L71.9533 93.1825C65.4227 94.143 58.7172 93.4878 52.4995 91.0678Z" fill="#446CCF"/>
<path d="M144.284 96V26.1818H161.159V82.2955H190.205V96H144.284ZM198.94 96V43.6364H215.611V96H198.94ZM207.293 37.5341C204.952 37.5341 202.94 36.7614 201.259 35.2159C199.577 33.6477 198.736 31.7614 198.736 29.5568C198.736 27.375 199.577 25.5114 201.259 23.9659C202.94 22.3977 204.952 21.6136 207.293 21.6136C209.656 21.6136 211.668 22.3977 213.327 23.9659C215.009 25.5114 215.849 27.375 215.849 29.5568C215.849 31.7614 215.009 33.6477 213.327 35.2159C211.668 36.7614 209.656 37.5341 207.293 37.5341ZM242.892 66.1364V96H226.222V43.6364H242.074V53.25H242.653C243.813 50.0455 245.79 47.5341 248.585 45.7159C251.381 43.875 254.71 42.9545 258.574 42.9545C262.256 42.9545 265.449 43.7841 268.153 45.4432C270.881 47.0795 272.994 49.375 274.494 52.3295C276.017 55.2614 276.767 58.6932 276.744 62.625V96H260.074V65.8977C260.097 62.9886 259.358 60.7159 257.858 59.0795C256.381 57.4432 254.324 56.625 251.688 56.625C249.938 56.625 248.392 57.0114 247.051 57.7841C245.733 58.5341 244.71 59.6136 243.983 61.0227C243.278 62.4318 242.915 64.1364 242.892 66.1364ZM302.099 82.2614L302.168 62.3864H304.486L319.213 43.6364H338.099L316.213 70.5H311.815L302.099 82.2614ZM287.065 96V26.1818H303.736V96H287.065ZM319.588 96L305.884 74.25L316.861 62.4205L338.849 96H319.588ZM381.804 47.1136C381.577 44.6136 380.565 42.6705 378.77 41.2841C376.997 39.875 374.463 39.1705 371.168 39.1705C368.986 39.1705 367.168 39.4545 365.713 40.0227C364.259 40.5909 363.168 41.375 362.44 42.375C361.713 43.3523 361.338 44.4773 361.315 45.75C361.27 46.7955 361.474 47.7159 361.929 48.5114C362.406 49.3068 363.088 50.0114 363.974 50.625C364.884 51.2159 365.974 51.7386 367.247 52.1932C368.52 52.6477 369.952 53.0455 371.543 53.3864L377.543 54.75C380.997 55.5 384.043 56.5 386.679 57.75C389.338 59 391.565 60.4886 393.361 62.2159C395.179 63.9432 396.554 65.9318 397.486 68.1818C398.418 70.4318 398.895 72.9545 398.918 75.75C398.895 80.1591 397.781 83.9432 395.577 87.1023C393.372 90.2614 390.202 92.6818 386.065 94.3636C381.952 96.0455 376.986 96.8864 371.168 96.8864C365.327 96.8864 360.236 96.0114 355.895 94.2614C351.554 92.5114 348.179 89.8523 345.77 86.2841C343.361 82.7159 342.122 78.2045 342.054 72.75H358.213C358.349 75 358.952 76.875 360.02 78.375C361.088 79.875 362.554 81.0114 364.418 81.7841C366.304 82.5568 368.486 82.9432 370.963 82.9432C373.236 82.9432 375.168 82.6364 376.759 82.0227C378.372 81.4091 379.611 80.5568 380.474 79.4659C381.338 78.375 381.781 77.125 381.804 75.7159C381.781 74.3977 381.372 73.2727 380.577 72.3409C379.781 71.3864 378.554 70.5682 376.895 69.8864C375.259 69.1818 373.168 68.5341 370.622 67.9432L363.327 66.2386C357.281 64.8523 352.52 62.6136 349.043 59.5227C345.565 56.4091 343.838 52.2045 343.861 46.9091C343.838 42.5909 344.997 38.8068 347.338 35.5568C349.679 32.3068 352.918 29.7727 357.054 27.9545C361.19 26.1364 365.906 25.2273 371.202 25.2273C376.611 25.2273 381.304 26.1477 385.281 27.9886C389.281 29.8068 392.384 32.3636 394.588 35.6591C396.793 38.9545 397.918 42.7727 397.963 47.1136H381.804ZM431.884 96.9886C426.361 96.9886 421.622 95.8523 417.668 93.5795C413.736 91.3068 410.713 88.1477 408.599 84.1023C406.486 80.0341 405.429 75.3295 405.429 69.9886C405.429 64.625 406.486 59.9205 408.599 55.875C410.736 51.8068 413.77 48.6364 417.702 46.3636C421.656 44.0909 426.372 42.9545 431.849 42.9545C436.69 42.9545 440.906 43.8295 444.497 45.5795C448.111 47.3295 450.929 49.8068 452.952 53.0114C454.997 56.1932 456.077 59.9318 456.19 64.2273H440.611C440.293 61.5455 439.384 59.4432 437.884 57.9205C436.406 56.3977 434.474 55.6364 432.088 55.6364C430.156 55.6364 428.463 56.1818 427.009 57.2727C425.554 58.3409 424.418 59.9318 423.599 62.0455C422.804 64.1364 422.406 66.7273 422.406 69.8182C422.406 72.9091 422.804 75.5227 423.599 77.6591C424.418 79.7727 425.554 81.375 427.009 82.4659C428.463 83.5341 430.156 84.0682 432.088 84.0682C433.634 84.0682 434.997 83.7386 436.179 83.0795C437.384 82.4205 438.372 81.4545 439.145 80.1818C439.918 78.8864 440.406 77.3182 440.611 75.4773H456.19C456.031 79.7955 454.952 83.5682 452.952 86.7955C450.974 90.0227 448.19 92.5341 444.599 94.3295C441.031 96.1023 436.793 96.9886 431.884 96.9886ZM489.165 96.9886C483.665 96.9886 478.938 95.8636 474.983 93.6136C471.051 91.3409 468.017 88.1818 465.881 84.1364C463.767 80.0682 462.71 75.3523 462.71 69.9886C462.71 64.6023 463.767 59.8864 465.881 55.8409C468.017 51.7727 471.051 48.6136 474.983 46.3636C478.938 44.0909 483.665 42.9545 489.165 42.9545C494.665 42.9545 499.381 44.0909 503.312 46.3636C507.267 48.6136 510.301 51.7727 512.415 55.8409C514.551 59.8864 515.619 64.6023 515.619 69.9886C515.619 75.3523 514.551 80.0682 512.415 84.1364C510.301 88.1818 507.267 91.3409 503.312 93.6136C499.381 95.8636 494.665 96.9886 489.165 96.9886ZM489.267 84.4091C491.267 84.4091 492.96 83.7955 494.347 82.5682C495.733 81.3409 496.79 79.6364 497.517 77.4545C498.267 75.2727 498.642 72.75 498.642 69.8864C498.642 66.9773 498.267 64.4318 497.517 62.25C496.79 60.0682 495.733 58.3636 494.347 57.1364C492.96 55.9091 491.267 55.2955 489.267 55.2955C487.199 55.2955 485.449 55.9091 484.017 57.1364C482.608 58.3636 481.528 60.0682 480.778 62.25C480.051 64.4318 479.688 66.9773 479.688 69.8864C479.688 72.75 480.051 75.2727 480.778 77.4545C481.528 79.6364 482.608 81.3409 484.017 82.5682C485.449 83.7955 487.199 84.4091 489.267 84.4091ZM524.159 115.636V43.6364H540.659V52.6023H541.17C541.852 51.0114 542.818 49.4773 544.068 48C545.341 46.5227 546.955 45.3182 548.909 44.3864C550.886 43.4318 553.25 42.9545 556 42.9545C559.636 42.9545 563.034 43.9091 566.193 45.8182C569.375 47.7273 571.943 50.6705 573.898 54.6477C575.852 58.625 576.83 63.6932 576.83 69.8523C576.83 75.7841 575.886 80.75 574 84.75C572.136 88.75 569.614 91.75 566.432 93.75C563.273 95.75 559.761 96.75 555.898 96.75C553.261 96.75 550.977 96.3182 549.045 95.4545C547.114 94.5909 545.489 93.4545 544.17 92.0455C542.875 90.6364 541.875 89.125 541.17 87.5114H540.83V115.636H524.159ZM540.489 69.8182C540.489 72.6364 540.864 75.0909 541.614 77.1818C542.386 79.2727 543.489 80.8977 544.92 82.0568C546.375 83.1932 548.114 83.7614 550.136 83.7614C552.182 83.7614 553.92 83.1932 555.352 82.0568C556.784 80.8977 557.864 79.2727 558.591 77.1818C559.341 75.0909 559.716 72.6364 559.716 69.8182C559.716 67 559.341 64.5568 558.591 62.4886C557.864 60.4205 556.784 58.8182 555.352 57.6818C553.943 56.5455 552.205 55.9773 550.136 55.9773C548.091 55.9773 546.352 56.5341 544.92 57.6477C543.489 58.7614 542.386 60.3523 541.614 62.4205C540.864 64.4886 540.489 66.9545 540.489 69.8182ZM610.043 96.9886C604.565 96.9886 599.838 95.9091 595.861 93.75C591.906 91.5682 588.861 88.4659 586.724 84.4432C584.611 80.3977 583.554 75.5909 583.554 70.0227C583.554 64.6136 584.622 59.8864 586.759 55.8409C588.895 51.7727 591.906 48.6136 595.793 46.3636C599.679 44.0909 604.259 42.9545 609.531 42.9545C613.259 42.9545 616.668 43.5341 619.759 44.6932C622.849 45.8523 625.52 47.5682 627.77 49.8409C630.02 52.1136 631.77 54.9205 633.02 58.2614C634.27 61.5795 634.895 65.3864 634.895 69.6818V73.8409H589.384V64.1591H619.384C619.361 62.3864 618.94 60.8068 618.122 59.4205C617.304 58.0341 616.179 56.9545 614.747 56.1818C613.338 55.3864 611.713 54.9886 609.872 54.9886C608.009 54.9886 606.338 55.4091 604.861 56.25C603.384 57.0682 602.213 58.1932 601.349 59.625C600.486 61.0341 600.031 62.6364 599.986 64.4318V74.2841C599.986 76.4205 600.406 78.2955 601.247 79.9091C602.088 81.5 603.281 82.7386 604.827 83.625C606.372 84.5114 608.213 84.9545 610.349 84.9545C611.827 84.9545 613.168 84.75 614.372 84.3409C615.577 83.9318 616.611 83.3295 617.474 82.5341C618.338 81.7386 618.986 80.7614 619.418 79.6023L634.724 80.0455C634.088 83.4773 632.69 86.4659 630.531 89.0114C628.395 91.5341 625.588 93.5 622.111 94.9091C618.634 96.2955 614.611 96.9886 610.043 96.9886Z" fill="#446CCF"/>
</svg>
