<svg width="143" height="13" viewBox="0 0 143 13" fill="none" xmlns="http://www.w3.org/2000/svg">
<path d="M2.84569 8.064C3.06969 8.46933 3.32035 8.82133 3.59769 9.12C3.88569 9.41867 4.19502 9.648 4.52569 9.808C4.86702 9.968 5.22435 10.048 5.59769 10.048C5.99235 10.048 6.31769 9.952 6.57369 9.76C6.82969 9.55733 6.95769 9.28533 6.95769 8.944C6.95769 8.656 6.88302 8.42667 6.73369 8.256C6.58435 8.07467 6.34435 7.904 6.01369 7.744C5.68302 7.584 5.24569 7.40267 4.70169 7.2C4.43502 7.104 4.12569 6.97067 3.77369 6.8C3.43235 6.62933 3.10702 6.41067 2.79769 6.144C2.48835 5.86667 2.23235 5.536 2.02969 5.152C1.82702 4.75733 1.72569 4.28267 1.72569 3.728C1.72569 3.06667 1.89635 2.496 2.23769 2.016C2.58969 1.536 3.05902 1.17333 3.64569 0.927999C4.24302 0.672 4.90435 0.544 5.62969 0.544C6.37635 0.544 7.02169 0.666666 7.56569 0.912C8.12035 1.15733 8.57902 1.46667 8.94169 1.84C9.30435 2.21333 9.58169 2.592 9.77369 2.976L7.70969 4.128C7.54969 3.86133 7.36302 3.632 7.14969 3.44C6.94702 3.23733 6.71769 3.08267 6.46169 2.976C6.21635 2.85867 5.94969 2.8 5.66169 2.8C5.27769 2.8 4.98435 2.88533 4.78169 3.056C4.57902 3.216 4.47769 3.41867 4.47769 3.664C4.47769 3.92 4.57369 4.144 4.76569 4.336C4.96835 4.528 5.25102 4.704 5.61369 4.864C5.98702 5.024 6.43502 5.19467 6.95769 5.376C7.35235 5.52533 7.72035 5.70133 8.06169 5.904C8.40302 6.096 8.70169 6.33067 8.95769 6.608C9.22435 6.88533 9.43235 7.20533 9.58169 7.568C9.73102 7.93067 9.80569 8.34667 9.80569 8.816C9.80569 9.38133 9.68835 9.888 9.45369 10.336C9.22969 10.7733 8.92035 11.1413 8.52569 11.44C8.14169 11.7387 7.69902 11.9627 7.19769 12.112C6.70702 12.272 6.20035 12.352 5.67769 12.352C4.95235 12.352 4.27502 12.224 3.64569 11.968C3.02702 11.7013 2.48835 11.344 2.02969 10.896C1.57102 10.448 1.21369 9.95733 0.957687 9.424L2.84569 8.064ZM13.4057 12V9.776H19.0537V12H13.4057ZM13.4057 3.024V0.799999H19.0537V3.024H13.4057ZM13.4057 7.2V5.024H18.7337V7.2H13.4057ZM11.6137 0.799999H14.2057V12H11.6137V0.799999ZM28.9823 0.799999H31.5903V12.56L23.8463 5.696V12H21.2543V0.24L28.9823 7.104V0.799999ZM33.9574 0.799999H36.7094V12H33.9574V0.799999ZM41.3064 6.4C41.3064 7.06133 41.4344 7.648 41.6904 8.16C41.9571 8.66133 42.3251 9.056 42.7944 9.344C43.2744 9.632 43.8344 9.776 44.4744 9.776C45.1038 9.776 45.6531 9.632 46.1224 9.344C46.6024 9.056 46.9704 8.66133 47.2264 8.16C47.4931 7.648 47.6264 7.06133 47.6264 6.4C47.6264 5.73867 47.4984 5.15733 47.2424 4.656C46.9864 4.144 46.6238 3.744 46.1544 3.456C45.6851 3.168 45.1251 3.024 44.4744 3.024C43.8344 3.024 43.2744 3.168 42.7944 3.456C42.3251 3.744 41.9571 4.144 41.6904 4.656C41.4344 5.15733 41.3064 5.73867 41.3064 6.4ZM38.4424 6.4C38.4424 5.536 38.5918 4.74667 38.8904 4.032C39.1998 3.31733 39.6264 2.69867 40.1704 2.176C40.7144 1.65333 41.3544 1.25333 42.0904 0.976C42.8264 0.688 43.6211 0.544 44.4744 0.544C45.3384 0.544 46.1331 0.688 46.8584 0.976C47.5944 1.25333 48.2344 1.65333 48.7784 2.176C49.3224 2.69867 49.7438 3.31733 50.0424 4.032C50.3411 4.74667 50.4904 5.536 50.4904 6.4C50.4904 7.264 50.3411 8.05867 50.0424 8.784C49.7544 9.50933 49.3384 10.1387 48.7944 10.672C48.2611 11.2053 47.6264 11.6213 46.8904 11.92C46.1544 12.208 45.3491 12.352 44.4744 12.352C43.5891 12.352 42.7784 12.208 42.0424 11.92C41.3064 11.6213 40.6664 11.2053 40.1224 10.672C39.5891 10.1387 39.1731 9.50933 38.8744 8.784C38.5864 8.05867 38.4424 7.264 38.4424 6.4ZM55.0231 6.928H57.8231L61.3271 12H58.1591L55.0231 6.928ZM52.2231 0.799999H54.9271V12H52.2231V0.799999ZM53.9191 3.088V0.799999H56.3031C57.2631 0.799999 58.0631 0.954666 58.7031 1.264C59.3431 1.57333 59.8284 2.00533 60.1591 2.56C60.4897 3.104 60.6551 3.73867 60.6551 4.464C60.6551 5.17867 60.4897 5.81333 60.1591 6.368C59.8284 6.912 59.3431 7.33867 58.7031 7.648C58.0631 7.95733 57.2631 8.112 56.3031 8.112H53.9191V6.016H56.1111C56.4737 6.016 56.7831 5.96267 57.0391 5.856C57.3057 5.73867 57.5084 5.57333 57.6471 5.36C57.7857 5.136 57.8551 4.86933 57.8551 4.56C57.8551 4.25067 57.7857 3.98933 57.6471 3.776C57.5084 3.552 57.3057 3.38133 57.0391 3.264C56.7831 3.14667 56.4737 3.088 56.1111 3.088H53.9191ZM68.6113 8.064C68.8353 8.46933 69.086 8.82133 69.3633 9.12C69.6513 9.41867 69.9606 9.648 70.2913 9.808C70.6326 9.968 70.99 10.048 71.3633 10.048C71.758 10.048 72.0833 9.952 72.3393 9.76C72.5953 9.55733 72.7233 9.28533 72.7233 8.944C72.7233 8.656 72.6486 8.42667 72.4993 8.256C72.35 8.07467 72.11 7.904 71.7793 7.744C71.4486 7.584 71.0113 7.40267 70.4673 7.2C70.2006 7.104 69.8913 6.97067 69.5393 6.8C69.198 6.62933 68.8726 6.41067 68.5633 6.144C68.254 5.86667 67.998 5.536 67.7953 5.152C67.5926 4.75733 67.4913 4.28267 67.4913 3.728C67.4913 3.06667 67.662 2.496 68.0033 2.016C68.3553 1.536 68.8246 1.17333 69.4113 0.927999C70.0086 0.672 70.67 0.544 71.3953 0.544C72.142 0.544 72.7873 0.666666 73.3313 0.912C73.886 1.15733 74.3446 1.46667 74.7073 1.84C75.07 2.21333 75.3473 2.592 75.5393 2.976L73.4753 4.128C73.3153 3.86133 73.1286 3.632 72.9153 3.44C72.7126 3.23733 72.4833 3.08267 72.2273 2.976C71.982 2.85867 71.7153 2.8 71.4273 2.8C71.0433 2.8 70.75 2.88533 70.5473 3.056C70.3446 3.216 70.2433 3.41867 70.2433 3.664C70.2433 3.92 70.3393 4.144 70.5313 4.336C70.734 4.528 71.0166 4.704 71.3793 4.864C71.7526 5.024 72.2006 5.19467 72.7233 5.376C73.118 5.52533 73.486 5.70133 73.8273 5.904C74.1686 6.096 74.4673 6.33067 74.7233 6.608C74.99 6.88533 75.198 7.20533 75.3473 7.568C75.4966 7.93067 75.5713 8.34667 75.5713 8.816C75.5713 9.38133 75.454 9.888 75.2193 10.336C74.9953 10.7733 74.686 11.1413 74.2913 11.44C73.9073 11.7387 73.4646 11.9627 72.9633 12.112C72.4726 12.272 71.966 12.352 71.4433 12.352C70.718 12.352 70.0406 12.224 69.4113 11.968C68.7926 11.7013 68.254 11.344 67.7953 10.896C67.3366 10.448 66.9793 9.95733 66.7233 9.424L68.6113 8.064ZM83.6673 0.799999H86.7713L82.8513 7.44V12H80.0993V7.456L76.1793 0.799999H79.2833L81.4753 5.008L83.6673 0.799999ZM95.6698 0.799999H98.2778V12.56L90.5338 5.696V12H87.9418V0.24L95.6698 7.104V0.799999ZM102.437 12V9.776H108.085V12H102.437ZM102.437 3.024V0.799999H108.085V3.024H102.437ZM102.437 7.2V5.024H107.765V7.2H102.437ZM100.645 0.799999H103.237V12H100.645V0.799999ZM113.086 6.928H115.886L119.39 12H116.222L113.086 6.928ZM110.286 0.799999H112.99V12H110.286V0.799999ZM111.982 3.088V0.799999H114.366C115.326 0.799999 116.126 0.954666 116.766 1.264C117.406 1.57333 117.891 2.00533 118.222 2.56C118.552 3.104 118.718 3.73867 118.718 4.464C118.718 5.17867 118.552 5.81333 118.222 6.368C117.891 6.912 117.406 7.33867 116.766 7.648C116.126 7.95733 115.326 8.112 114.366 8.112H111.982V6.016H114.174C114.536 6.016 114.846 5.96267 115.102 5.856C115.368 5.73867 115.571 5.57333 115.71 5.36C115.848 5.136 115.918 4.86933 115.918 4.56C115.918 4.25067 115.848 3.98933 115.71 3.776C115.571 3.552 115.368 3.38133 115.102 3.264C114.846 3.14667 114.536 3.088 114.174 3.088H111.982ZM126.197 7.952V5.872H131.861C131.914 6.768 131.824 7.60533 131.589 8.384C131.354 9.16267 130.992 9.85067 130.501 10.448C130.01 11.0453 129.397 11.5147 128.661 11.856C127.925 12.1867 127.082 12.352 126.133 12.352C125.237 12.352 124.416 12.2133 123.669 11.936C122.922 11.648 122.277 11.2427 121.733 10.72C121.189 10.1867 120.762 9.55733 120.453 8.832C120.154 8.096 120.005 7.28533 120.005 6.4C120.005 5.51467 120.16 4.71467 120.469 4C120.778 3.27467 121.216 2.656 121.781 2.144C122.346 1.632 123.008 1.23733 123.765 0.959999C124.522 0.682666 125.344 0.544 126.229 0.544C127.018 0.544 127.728 0.656 128.357 0.879999C128.986 1.104 129.541 1.41867 130.021 1.824C130.512 2.21867 130.933 2.67733 131.285 3.2L128.885 4.448C128.629 4 128.282 3.632 127.845 3.344C127.418 3.04533 126.88 2.896 126.229 2.896C125.61 2.896 125.04 3.03467 124.517 3.312C124.005 3.58933 123.594 3.98933 123.285 4.512C122.986 5.024 122.837 5.65333 122.837 6.4C122.837 7.136 122.981 7.776 123.269 8.32C123.568 8.85333 123.968 9.26933 124.469 9.568C124.981 9.856 125.568 10 126.229 10C126.634 10 127.002 9.952 127.333 9.856C127.664 9.74933 127.946 9.60533 128.181 9.424C128.416 9.232 128.613 9.01333 128.773 8.768C128.944 8.512 129.077 8.24 129.173 7.952H126.197ZM139.48 0.799999H142.584L138.664 7.44V12H135.912V7.456L131.992 0.799999H135.096L137.288 5.008L139.48 0.799999Z" fill="black"/>
</svg>
