<svg width="207" height="23" viewBox="0 0 207 23" fill="none" xmlns="http://www.w3.org/2000/svg">
<path d="M30.6821 13.08C30.9621 13.5867 31.2754 14.0267 31.6221 14.4C31.9821 14.7733 32.3688 15.06 32.7821 15.26C33.2088 15.46 33.6554 15.56 34.1221 15.56C34.6154 15.56 35.0221 15.44 35.3421 15.2C35.6621 14.9467 35.8221 14.6067 35.8221 14.18C35.8221 13.82 35.7288 13.5333 35.5421 13.32C35.3554 13.0933 35.0554 12.88 34.6421 12.68C34.2288 12.48 33.6821 12.2533 33.0021 12C32.6688 11.88 32.2821 11.7133 31.8421 11.5C31.4154 11.2867 31.0088 11.0133 30.6221 10.68C30.2354 10.3333 29.9154 9.92 29.6621 9.44C29.4088 8.94667 29.2821 8.35333 29.2821 7.66C29.2821 6.83333 29.4954 6.12 29.9221 5.52C30.3621 4.92 30.9488 4.46667 31.6821 4.16C32.4288 3.84 33.2554 3.68 34.1621 3.68C35.0954 3.68 35.9021 3.83333 36.5821 4.14C37.2754 4.44667 37.8488 4.83333 38.3021 5.3C38.7554 5.76667 39.1021 6.24 39.3421 6.72L36.7621 8.16C36.5621 7.82667 36.3288 7.54 36.0621 7.3C35.8088 7.04667 35.5221 6.85333 35.2021 6.72C34.8954 6.57333 34.5621 6.5 34.2021 6.5C33.7221 6.5 33.3554 6.60667 33.1021 6.82C32.8488 7.02 32.7221 7.27333 32.7221 7.58C32.7221 7.9 32.8421 8.18 33.0821 8.42C33.3354 8.66 33.6888 8.88 34.1421 9.08C34.6088 9.28 35.1688 9.49333 35.8221 9.72C36.3154 9.90667 36.7754 10.1267 37.2021 10.38C37.6288 10.62 38.0021 10.9133 38.3221 11.26C38.6554 11.6067 38.9154 12.0067 39.1021 12.46C39.2888 12.9133 39.3821 13.4333 39.3821 14.02C39.3821 14.7267 39.2354 15.36 38.9421 15.92C38.6621 16.4667 38.2754 16.9267 37.7821 17.3C37.3021 17.6733 36.7488 17.9533 36.1221 18.14C35.5088 18.34 34.8754 18.44 34.2221 18.44C33.3154 18.44 32.4688 18.28 31.6821 17.96C30.9088 17.6267 30.2354 17.18 29.6621 16.62C29.0888 16.06 28.6421 15.4467 28.3221 14.78L30.6821 13.08ZM43.8821 18V15.22H50.9421V18H43.8821ZM43.8821 6.78V4H50.9421V6.78H43.8821ZM43.8821 12V9.28H50.5421V12H43.8821ZM41.6421 4H44.8821V18H41.6421V4ZM63.3529 4H66.6129V18.7L56.9329 10.12V18H53.6929V3.3L63.3529 11.88V4ZM69.5718 4H73.0118V18H69.5718V4ZM78.758 11C78.758 11.8267 78.918 12.56 79.238 13.2C79.5714 13.8267 80.0314 14.32 80.618 14.68C81.218 15.04 81.918 15.22 82.718 15.22C83.5047 15.22 84.1914 15.04 84.778 14.68C85.378 14.32 85.838 13.8267 86.158 13.2C86.4914 12.56 86.658 11.8267 86.658 11C86.658 10.1733 86.498 9.44667 86.178 8.82C85.858 8.18 85.4047 7.68 84.818 7.32C84.2314 6.96 83.5314 6.78 82.718 6.78C81.918 6.78 81.218 6.96 80.618 7.32C80.0314 7.68 79.5714 8.18 79.238 8.82C78.918 9.44667 78.758 10.1733 78.758 11ZM75.178 11C75.178 9.92 75.3647 8.93333 75.738 8.04C76.1247 7.14667 76.658 6.37333 77.338 5.72C78.018 5.06667 78.818 4.56667 79.738 4.22C80.658 3.86 81.6514 3.68 82.718 3.68C83.798 3.68 84.7914 3.86 85.698 4.22C86.618 4.56667 87.418 5.06667 88.098 5.72C88.778 6.37333 89.3047 7.14667 89.678 8.04C90.0514 8.93333 90.238 9.92 90.238 11C90.238 12.08 90.0514 13.0733 89.678 13.98C89.318 14.8867 88.798 15.6733 88.118 16.34C87.4514 17.0067 86.658 17.5267 85.738 17.9C84.818 18.26 83.8114 18.44 82.718 18.44C81.6114 18.44 80.598 18.26 79.678 17.9C78.758 17.5267 77.958 17.0067 77.278 16.34C76.6114 15.6733 76.0914 14.8867 75.718 13.98C75.358 13.0733 75.178 12.08 75.178 11ZM95.9038 11.66H99.4038L103.784 18H99.8238L95.9038 11.66ZM92.4038 4H95.7838V18H92.4038V4ZM94.5238 6.86V4H97.5038C98.7038 4 99.7038 4.19333 100.504 4.58C101.304 4.96667 101.91 5.50667 102.324 6.2C102.737 6.88 102.944 7.67333 102.944 8.58C102.944 9.47333 102.737 10.2667 102.324 10.96C101.91 11.64 101.304 12.1733 100.504 12.56C99.7038 12.9467 98.7038 13.14 97.5038 13.14H94.5238V10.52H97.2638C97.7172 10.52 98.1038 10.4533 98.4238 10.32C98.7572 10.1733 99.0105 9.96667 99.1838 9.7C99.3572 9.42 99.4438 9.08667 99.4438 8.7C99.4438 8.31333 99.3572 7.98667 99.1838 7.72C99.0105 7.44 98.7572 7.22667 98.4238 7.08C98.1038 6.93333 97.7172 6.86 97.2638 6.86H94.5238ZM112.889 13.08C113.169 13.5867 113.482 14.0267 113.829 14.4C114.189 14.7733 114.576 15.06 114.989 15.26C115.416 15.46 115.862 15.56 116.329 15.56C116.822 15.56 117.229 15.44 117.549 15.2C117.869 14.9467 118.029 14.6067 118.029 14.18C118.029 13.82 117.936 13.5333 117.749 13.32C117.562 13.0933 117.262 12.88 116.849 12.68C116.436 12.48 115.889 12.2533 115.209 12C114.876 11.88 114.489 11.7133 114.049 11.5C113.622 11.2867 113.216 11.0133 112.829 10.68C112.442 10.3333 112.122 9.92 111.869 9.44C111.616 8.94667 111.489 8.35333 111.489 7.66C111.489 6.83333 111.702 6.12 112.129 5.52C112.569 4.92 113.156 4.46667 113.889 4.16C114.636 3.84 115.462 3.68 116.369 3.68C117.302 3.68 118.109 3.83333 118.789 4.14C119.482 4.44667 120.056 4.83333 120.509 5.3C120.962 5.76667 121.309 6.24 121.549 6.72L118.969 8.16C118.769 7.82667 118.536 7.54 118.269 7.3C118.016 7.04667 117.729 6.85333 117.409 6.72C117.102 6.57333 116.769 6.5 116.409 6.5C115.929 6.5 115.562 6.60667 115.309 6.82C115.056 7.02 114.929 7.27333 114.929 7.58C114.929 7.9 115.049 8.18 115.289 8.42C115.542 8.66 115.896 8.88 116.349 9.08C116.816 9.28 117.376 9.49333 118.029 9.72C118.522 9.90667 118.982 10.1267 119.409 10.38C119.836 10.62 120.209 10.9133 120.529 11.26C120.862 11.6067 121.122 12.0067 121.309 12.46C121.496 12.9133 121.589 13.4333 121.589 14.02C121.589 14.7267 121.442 15.36 121.149 15.92C120.869 16.4667 120.482 16.9267 119.989 17.3C119.509 17.6733 118.956 17.9533 118.329 18.14C117.716 18.34 117.082 18.44 116.429 18.44C115.522 18.44 114.676 18.28 113.889 17.96C113.116 17.6267 112.442 17.18 111.869 16.62C111.296 16.06 110.849 15.4467 110.529 14.78L112.889 13.08ZM131.709 4H135.589L130.689 12.3V18H127.249V12.32L122.349 4H126.229L128.969 9.26L131.709 4ZM146.712 4H149.972V18.7L140.292 10.12V18H137.052V3.3L146.712 11.88V4ZM155.171 18V15.22H162.231V18H155.171ZM155.171 6.78V4H162.231V6.78H155.171ZM155.171 12V9.28H161.831V12H155.171ZM152.931 4H156.171V18H152.931V4ZM168.482 11.66H171.982L176.362 18H172.402L168.482 11.66ZM164.982 4H168.362V18H164.982V4ZM167.102 6.86V4H170.082C171.282 4 172.282 4.19333 173.082 4.58C173.882 4.96667 174.489 5.50667 174.902 6.2C175.315 6.88 175.522 7.67333 175.522 8.58C175.522 9.47333 175.315 10.2667 174.902 10.96C174.489 11.64 173.882 12.1733 173.082 12.56C172.282 12.9467 171.282 13.14 170.082 13.14H167.102V10.52H169.842C170.295 10.52 170.682 10.4533 171.002 10.32C171.335 10.1733 171.589 9.96667 171.762 9.7C171.935 9.42 172.022 9.08667 172.022 8.7C172.022 8.31333 171.935 7.98667 171.762 7.72C171.589 7.44 171.335 7.22667 171.002 7.08C170.682 6.93333 170.295 6.86 169.842 6.86H167.102ZM184.871 12.94V10.34H191.951C192.018 11.46 191.905 12.5067 191.611 13.48C191.318 14.4533 190.865 15.3133 190.251 16.06C189.638 16.8067 188.871 17.3933 187.951 17.82C187.031 18.2333 185.978 18.44 184.791 18.44C183.671 18.44 182.645 18.2667 181.711 17.92C180.778 17.56 179.971 17.0533 179.291 16.4C178.611 15.7333 178.078 14.9467 177.691 14.04C177.318 13.12 177.131 12.1067 177.131 11C177.131 9.89333 177.325 8.89333 177.711 8C178.098 7.09333 178.645 6.32 179.351 5.68C180.058 5.04 180.885 4.54667 181.831 4.2C182.778 3.85333 183.805 3.68 184.911 3.68C185.898 3.68 186.785 3.82 187.571 4.1C188.358 4.38 189.051 4.77333 189.651 5.28C190.265 5.77333 190.791 6.34667 191.231 7L188.231 8.56C187.911 8 187.478 7.54 186.931 7.18C186.398 6.80667 185.725 6.62 184.911 6.62C184.138 6.62 183.425 6.79333 182.771 7.14C182.131 7.48667 181.618 7.98667 181.231 8.64C180.858 9.28 180.671 10.0667 180.671 11C180.671 11.92 180.851 12.72 181.211 13.4C181.585 14.0667 182.085 14.5867 182.711 14.96C183.351 15.32 184.085 15.5 184.911 15.5C185.418 15.5 185.878 15.44 186.291 15.32C186.705 15.1867 187.058 15.0067 187.351 14.78C187.645 14.54 187.891 14.2667 188.091 13.96C188.305 13.64 188.471 13.3 188.591 12.94H184.871ZM201.475 4H205.355L200.455 12.3V18H197.015V12.32L192.115 4H195.995L198.735 9.26L201.475 4Z" fill="white"/>
<path d="M14.5 7.5C14.5 6 14.8176 3.81743 18.3593 2.85988C18.3428 5.26564 19.2148 7.76468 19.8905 9.19332C20.4654 10.4086 21 11.539 21 13.0415C21 18.5416 16.2992 22 10.5 22C4.70077 22 0 18.5416 0 13.0415C0 10.7671 0.84 7.47488 4.2 6.24921C4.2 6.24921 3.5 9 4.3679 10.6836C3.277 11.2403 2.53516 12.3352 2.53516 13.5949C2.53516 15.4184 4.08976 16.8967 6.00744 16.8967C7.79472 16.8967 9.26661 15.6126 9.45853 13.9617H11.436C11.6279 15.6126 13.0998 16.8967 14.8871 16.8967C16.8047 16.8967 18.3593 15.4184 18.3593 13.5949C18.3593 11.7713 16.8047 10.2931 14.8871 10.2931C13.2691 10.2931 11.9096 11.3453 11.5242 12.7694H9.37033C8.98487 11.3453 7.62538 10.2931 6.00744 10.2931C5.88543 10.2931 5.76489 10.2991 5.64612 10.3107C5.04 7.06632 5.59578 2.35494 12.1803 0C12.1803 0.178583 12.1801 0.355074 12.18 0.529532C12.1762 4.91478 13 6 14.5 7.5Z" fill="white"/>
</svg>
